<svg xmlns="http://www.w3.org/2000/svg" width="173" height="27.1" viewBox="0 0 173 27.1">
  <g id="Group_4933" data-name="Group 4933" transform="translate(9929 5728.68)">
    <path id="Path_17746" data-name="Path 17746" d="M471.827,114.786a13.372,13.372,0,1,0-13.372,13.373,13.373,13.373,0,0,0,13.372-13.373" transform="translate(-10227.827 -5829.739)" fill="#e9352e"/>
    <g id="Group_4932" data-name="Group 4932" transform="translate(-10152 -5787)">
      <rect id="Rectangle_1187" data-name="Rectangle 1187" width="6.932" height="18.599" transform="translate(283.248 66.026)" fill="#fff"/>
      <path id="Path_17747" data-name="Path 17747" d="M251.913,127.18l-2.622-8.818-3.621,8.818H231.945V114.818h-4.427V127.18h-7.024v-18.6h18.474v12.776l1.843.013,5.25-11.566-3.522-8.935h7.475s7.042,19.878,9.176,26.311Z" transform="translate(2.506 -42.549)" fill="#fff"/>
      <path id="Path_17748" data-name="Path 17748" d="M382.892,112.063c-5.594,0-10.3,4.122-10.3,9.717s4.711,9.717,10.3,9.717a9.726,9.726,0,1,0,0-19.434m0,13.1a3.245,3.245,0,0,1-3.385-3.386,3.168,3.168,0,0,1,3.385-3.386,3.132,3.132,0,0,1,3.239,3.386,3.212,3.212,0,0,1-3.239,3.386" transform="translate(-50.542 -46.454)" fill="#fff"/>
      <path id="Path_17749" data-name="Path 17749" d="M288.954,118.345a3.553,3.553,0,0,1,3.507,3.507V122a3.58,3.58,0,1,1-7.159,0,3.53,3.53,0,0,1,3.653-3.653m-.584-6.282a9.454,9.454,0,0,0-9.644,9.643,9.577,9.577,0,0,0,9.644,9.79,8.205,8.205,0,0,0,4.53-1.315l.438.9h5.552v-18.6h-5.552l-.438.9a8.2,8.2,0,0,0-4.53-1.315" transform="translate(-17.804 -46.454)" fill="#fff"/>
      <path id="Path_17750" data-name="Path 17750" d="M336.192,118.721a3.507,3.507,0,0,1,0,7.014,3.416,3.416,0,0,1-3.653-3.507,3.5,3.5,0,0,1,3.653-3.507m18.64-6.015h-18.64c-5.845,0-10.082,4.133-10.082,9.54,0,5.552,4.529,9.5,10.082,9.5s9.644-3.8,9.644-8.767a7.727,7.727,0,0,0-1.315-4.383h3.3v12.712h7.014Z" transform="translate(-34.331 -46.678)" fill="#fff"/>
    </g>
  </g>
</svg>
